<svg id="Layer_1" data-name="Layer 1" xmlns="http://www.w3.org/2000/svg" xmlns:xlink="http://www.w3.org/1999/xlink" viewBox="0 0 574.81 571.99"><defs><style>.cls-1{fill:#5352a3;}.cls-10,.cls-2,.cls-9{fill:#e7f1fa;}.cls-2{opacity:0.5;}.cls-3{fill:#e8eff9;}.cls-4{fill:#fdfeff;}.cls-5{fill:url(#linear-gradient);}.cls-21,.cls-6,.cls-8{fill:none;stroke-linecap:round;stroke-miterlimit:10;}.cls-6{stroke:#fdfeff;stroke-width:2.26px;}.cls-7{fill:#899ab0;}.cls-10,.cls-38,.cls-7{opacity:0.2;}.cls-8{stroke:#95b9cd;}.cls-21,.cls-8{stroke-width:2.24px;}.cls-9{opacity:0.05;}.cls-11{fill:#322c48;}.cls-12{fill:#f4ce9e;}.cls-13{fill:#e1833e;}.cls-14{fill:#769fd3;}.cls-15{fill:#a9caeb;}.cls-16{fill:#94cddd;}.cls-17{fill:#305c99;}.cls-18{fill:#3f6caa;}.cls-19{fill:#eecdb3;}.cls-20{fill:#95b9cd;opacity:0.4;}.cls-21{stroke:#49bd9c;}.cls-22{fill:#161c1c;}.cls-23{fill:#e6b984;}.cls-24{fill:url(#linear-gradient-2);}.cls-25{fill:#9aa0cf;}.cls-26{fill:#251e3c;}.cls-27{fill:url(#linear-gradient-3);}.cls-28{fill:#e9e5e8;}.cls-29{fill:url(#linear-gradient-4);}.cls-30{fill:url(#linear-gradient-5);}.cls-31{fill:url(#linear-gradient-6);}.cls-32{fill:url(#linear-gradient-7);}.cls-33{fill:#fcd477;}.cls-34{fill:#cbdef0;}.cls-35{fill:#7dabda;}.cls-36{fill:#95bae0;}.cls-37{fill:#fff;}.cls-38{fill:#2e4866;}.cls-39{fill:url(#linear-gradient-8);}.cls-40{fill:url(#linear-gradient-9);}</style><linearGradient id="linear-gradient" x1="199.47" y1="189.43" x2="519.8" y2="189.43" gradientUnits="userSpaceOnUse"><stop offset="0" stop-color="#49bd9c"/><stop offset="0.74" stop-color="#7bc476"/><stop offset="0.81" stop-color="#7dc574"/><stop offset="0.94" stop-color="#89c86e"/><stop offset="1" stop-color="#8ec96c"/></linearGradient><linearGradient id="linear-gradient-2" x1="120.81" y1="361.71" x2="101.36" y2="371.36" gradientUnits="userSpaceOnUse"><stop offset="0" stop-color="#f9a36c"/><stop offset="1" stop-color="#f05477"/></linearGradient><linearGradient id="linear-gradient-3" x1="53.74" y1="382.98" x2="108.91" y2="382.98" gradientUnits="userSpaceOnUse"><stop offset="0" stop-color="#fab317"/><stop offset="1" stop-color="#f4a383"/></linearGradient><linearGradient id="linear-gradient-4" x1="79.02" y1="348.95" x2="56.29" y2="382.79" xlink:href="#linear-gradient-2"/><linearGradient id="linear-gradient-5" x1="230.52" y1="384.03" x2="234.39" y2="384.03" xlink:href="#linear-gradient"/><linearGradient id="linear-gradient-6" x1="219.4" y1="385.28" x2="223.53" y2="385.28" gradientUnits="userSpaceOnUse"><stop offset="0" stop-color="#6474b8"/><stop offset="1" stop-color="#5453a3"/></linearGradient><linearGradient id="linear-gradient-7" x1="227.42" y1="385.98" x2="229.81" y2="385.98" gradientUnits="userSpaceOnUse"><stop offset="0" stop-color="#f9a66c"/><stop offset="1" stop-color="#f05577"/></linearGradient><linearGradient id="linear-gradient-8" x1="238.45" y1="342.6" x2="267.38" y2="342.6" xlink:href="#linear-gradient"/><linearGradient id="linear-gradient-9" x1="268.04" y1="272.54" x2="277.56" y2="272.54" xlink:href="#linear-gradient"/></defs><path class="cls-1" d="M177.81,215.11H538.48a13.61,13.61,0,0,1,13.61,13.61V484.6a13.61,13.61,0,0,1-13.61,13.61H177.81a13.61,13.61,0,0,1-13.61-13.61V228.73a13.62,13.62,0,0,1,13.62-13.62Z"/><path class="cls-2" d="M177.81,215.11H538.48a13.61,13.61,0,0,1,13.61,13.61V484.6a13.61,13.61,0,0,1-13.61,13.61H177.81a13.61,13.61,0,0,1-13.61-13.61V228.73a13.62,13.62,0,0,1,13.62-13.62Z"/><path class="cls-3" d="M544.83,438.1c0,6-5.87,10.78-13.1,10.78H184.56c-7.24,0-13.1-4.82-13.1-10.78V235.34c0-6,5.86-10.79,13.1-10.79H531.73c7.23,0,13.1,4.83,13.1,10.79Z"/><rect class="cls-4" x="192.21" y="172.06" width="333.24" height="253.03" rx="7.29"/><rect class="cls-5" x="199.47" y="178.26" width="320.32" height="22.34" rx="6.59"/><path class="cls-4" d="M509.48,184a5.63,5.63,0,0,0-7.74-.78,5.21,5.21,0,0,0-.82,7.48,5.64,5.64,0,0,0,6.95,1.31l0,.05,3.94,4.72a1,1,0,0,0,1.35.14.9.9,0,0,0,.13-1.3l-3.94-4.72s0,0-.05-.05A5.2,5.2,0,0,0,509.48,184Zm-1.68,6.47a4.23,4.23,0,0,1-5.82-.6,3.94,3.94,0,0,1,.62-5.63,4.23,4.23,0,0,1,5.82.6A3.93,3.93,0,0,1,507.8,190.43Z"/><rect class="cls-3" x="209.7" y="215.95" width="204.59" height="131.89"/><rect class="cls-6" x="214.01" y="220.27" width="195.96" height="113.36"/><ellipse class="cls-7" cx="286.52" cy="530.26" rx="270.24" ry="22.03"/><line class="cls-8" x1="361.41" y1="115.43" x2="361.41" y2="103.32"/><line class="cls-8" x1="355.36" y1="109.37" x2="367.46" y2="109.37"/><path class="cls-1" d="M165.17,457.63v28.91a13.62,13.62,0,0,0,13.61,13.61H539.45a13.61,13.61,0,0,0,13.61-13.61V457.63Z"/><path class="cls-1" d="M418.55,516.16H299.68s31.08-7.7,31.08-16.78V468.57h56.71v30.81C387.47,513,418.55,516.16,418.55,516.16Z"/><rect class="cls-1" x="299.68" y="516.16" width="118.87" height="8.62"/><rect class="cls-9" x="299.68" y="516.16" width="118.87" height="8.62"/><path class="cls-1" d="M326.39,287.08C322,296,316.47,320.42,315,321.76s-10.2,6.52-11.7,9-.08,1.16-.17,1.84c-.17,1.28,69.71,0,70.56-1.14,0,0-36.46-24.43-37-24.6S326.39,287.08,326.39,287.08Z"/><path class="cls-10" d="M320.13,332.84c6.94.05,14.27.08,18.3.1l-5.52-33c-3-5.71-6.52-12.86-6.52-12.86-.55,1.13-1.13,2.5-1.71,4-.57,24.79,3,31.74.32,36.15A17.32,17.32,0,0,1,320.13,332.84Z"/><path class="cls-1" d="M349.56,276.3c6.27,5.79,20.24,11.29,20.24,11.29s2.12,19.6.68,30.71-.65,13.35-.65,13.35H341s-3.86-5.36-10.94-22c-4.5-10.62-3.7-22.53-3.7-22.53l17.54-7.88Z"/><path class="cls-10" d="M341,331.65h28.8s-.8-2.25.65-13.35c1.19-9.15,0-24.05-.51-29l-2.62-1.13c-6.58,1.9-10.36,11.71-11.48,21.29-.74,6.41-11.37,12.73-18.32,16.2A55.74,55.74,0,0,0,341,331.65Z"/><path class="cls-11" d="M334,256.18a17.21,17.21,0,0,0,.57,14.59c-.13-.3,5.25-13.06,5.25-13.06Z"/><path class="cls-12" d="M347.13,261.89l4.4,16.1a1.45,1.45,0,0,1-.28,1.3c-1,1.27-2.5,3.89-5.47,4.73a7.38,7.38,0,0,1-1.86.21,1.25,1.25,0,0,1-1.24-1L339.73,268Z"/><path class="cls-13" d="M346.29,263.24l-1.61.66L339.73,268l2.66,13.53C346.89,278.67,347.55,276.78,346.29,263.24Z"/><path class="cls-12" d="M347,269c-1,5.3-4.94,8.88-8.85,8s-5.78-4.3-5.32-11.17c.36-5.39,3-11.25,6.93-10.38S347.94,263.72,347,269Z"/><path class="cls-1" d="M369.8,287.59c5.83,1.31,6.91,13.15,8.81,25.63.22,1.44,1.33,13.6,1.33,13.6a3.7,3.7,0,0,1-2.11,3.34c-1.91.95-2.68,1.67-13.71,1.78-10.6.11-24.26-.33-24.26-.33s-.12-3.94,1-5.87c1.64-2.9,18.39-7.06,19.95-7.28.23-3.12-1.53-14.41.9-22.07,1.67-5.26,3.47-8,5.72-8.74A4.46,4.46,0,0,1,369.8,287.59Z"/><path class="cls-10" d="M345.85,331.85c5.22.08,12.39.15,18.27.09,11-.11,11.8-.83,13.71-1.78a3.91,3.91,0,0,0,2.34-3s-1.13-12.94-1.34-14.38c-1.23-8.35-2.55-17.92-5.63-22.54A63.23,63.23,0,0,1,376.61,309a18.18,18.18,0,0,1-.57,5.15,2.86,2.86,0,0,1-3.79,2.12c-4-1.11-9,1.23-9,1.23a12.57,12.57,0,0,1,7.35-.12c3.57,1.23,10.92,9.37,2.9,12.38C371,330.64,356.32,331.39,345.85,331.85Z"/><path class="cls-14" d="M292.36,324.88H250.84a4.53,4.53,0,0,1-4.45-3.76L241,291.22a4.57,4.57,0,0,1,4.45-5.41H287a4.55,4.55,0,0,1,4.45,3.76l5.41,29.89A4.57,4.57,0,0,1,292.36,324.88Z"/><path class="cls-15" d="M294.3,319.57l-5.53-29.27a4.57,4.57,0,0,0-4.54-3.68H242a4.66,4.66,0,0,0-1.06,3.9L246.58,321a4.69,4.69,0,0,0,4.61,3.84h38.57A4.54,4.54,0,0,0,294.3,319.57Z"/><path class="cls-14" d="M284.29,328.88h-7.88a2.68,2.68,0,0,1-2.55-2.8V311.67a4.26,4.26,0,0,0-4.05-4.45h-4.12a4.26,4.26,0,0,0-4.05,4.45v16.14a4.78,4.78,0,0,0,4.56,5l21.51-.15A3.6,3.6,0,0,0,284.29,328.88Z"/><path class="cls-15" d="M262,312v15.89a4.89,4.89,0,0,0,4.55,4.88l21-.13c0-.34-1.66-1-3.7-1h-8.53a2.75,2.75,0,0,1-2.75-2.75V312a4.38,4.38,0,0,0-4.38-4.39h-1.79A4.39,4.39,0,0,0,262,312Z"/><path class="cls-11" d="M332.8,268.93c-.17,6.47,2,7.56,3.58,8.44s8.18-.57,9.16-2.17c2.49-4.09.39-7.91.95-7.85s1.07,1.65,2.52,3.72c.14.19,1.08,1.47,1.13,1,.68-5.79,3.7-7.59,3-13.45-.53-4.32-3.27-4-3.27-4s-1.77-3.61-7.28-3.2c-3.69.27-7,1.71-10.78,2.69s4.5,9.6,9.43,6.45,2.5,3.79,3.28,4.32.37.08.73,3.63-4.15,5.86-5.45,6.17c-4.13,1-4.82.29-5.72-1.27A17.5,17.5,0,0,1,332.8,268.93Z"/><path class="cls-12" d="M349.9,266.93c-.48,1.63-1.64,2.68-2.59,2.35s-1-1.66-.87-3.55c.1-1.71,1.63-2.69,2.59-2.36S350.37,265.3,349.9,266.93Z"/><path class="cls-16" d="M334.7,326.59a5.14,5.14,0,0,1,4.22-2.35c2.83,0,2.63,4.63,2.21,6.15a2.3,2.3,0,0,1-2.07,1.59L333,331.7Z"/><rect class="cls-14" x="289.13" y="330.63" width="40.45" height="2.41" rx="1.05"/><path class="cls-12" d="M333.94,326.86c-5.94-2.14-7.5-1.33-8.85-1.72-3.32-1-4.15-.14-6.29,5.73-.43,1.18.83,1.25,2.08,1.25s2.76-2.42,3.24-2.7a7,7,0,0,1,1.8-.41s-.41,0-1,1.24-1.38,1.73-.41,1.73,1.11-1.59,2.9-1.24,1.11,1.24,5.6,1.17,7.89,0,7.82-2.69.21-3.84-2.22-4.29C336.71,324.58,333.94,326.86,333.94,326.86Z"/><path class="cls-1" d="M334,326.86c4-.44,2.81,4.51,2.39,4.92s2.22.15,2.22.15a4.81,4.81,0,0,0,.19-4.27,3.88,3.88,0,0,0-3.11-2.39l-1.76,1Z"/><path class="cls-17" d="M338.17,326.43c-.05.62-1.09,1-2.33.93s-2.19-.69-2.14-1.3,1.09-1,2.33-.92S338.22,325.82,338.17,326.43Z"/><path class="cls-18" d="M337.85,326.13c0,.55-1,.92-2.08.82s-2-.61-1.91-1.16,1-.91,2.08-.82S337.9,325.58,337.85,326.13Z"/><path class="cls-19" d="M337.16,325.87c0,.4-.7.67-1.49.6s-1.42-.44-1.38-.84.7-.66,1.5-.59S337.2,325.48,337.16,325.87Z"/><path class="cls-13" d="M301.38,327.46c2.95-1.64,6.56-1.09,7.87.55s1.53,2.73-1.42,2.73-8.86.22-9.84.11S301.38,327.46,301.38,327.46Z"/><path class="cls-12" d="M305.75,326.48c3.17-.77,5.34,1.08,8,2.84,2.3,1.53,2.76,3,.22,1.75a19.2,19.2,0,0,0-5.9-2.08Z"/><path class="cls-12" d="M302.86,327.45c-1.6,0-3-.51-4.13-.42s-4.71,3.77-4.14,4.05l.13.06a1.93,1.93,0,0,0,2.29-.8c.5-.82,1.33-1.76,2.29-1.42a10.33,10.33,0,0,0,3.28.51Z"/><path class="cls-12" d="M301.92,331.4c-1.64-.66,1-6.13,1.86-6.13s4.16,2.63,4.16,2.63-.77.43-3.39-.44c-.66-.22-1.2,3.5-2,3.94S301.92,331.4,301.92,331.4Z"/><rect class="cls-3" x="209.7" y="330.63" width="204.59" height="17.21"/><polygon class="cls-1" points="214.99 346.02 214.99 336.72 220.84 341.37 214.99 346.02"/><rect class="cls-1" x="225.33" y="336.72" width="2.48" height="9.31"/><rect class="cls-1" x="229.46" y="336.72" width="2.48" height="9.31"/><polygon class="cls-4" points="396.46 340.03 396.46 337.14 401.65 337.14 401.65 335.64 394.89 335.64 394.89 340.03 396.46 340.03"/><polygon class="cls-4" points="408.88 340.03 410.45 340.03 410.45 335.64 403.7 335.64 403.7 337.14 408.88 337.14 408.88 340.03"/><polygon class="cls-4" points="408.88 342.6 408.88 345.6 403.7 345.6 403.7 347.1 410.45 347.1 410.45 342.6 408.88 342.6"/><polygon class="cls-4" points="396.46 342.6 394.89 342.6 394.89 347.1 401.65 347.1 401.65 345.6 396.46 345.6 396.46 342.6"/><rect class="cls-20" x="210.68" y="361.21" width="133.67" height="5.82"/><rect class="cls-20" x="210.68" y="371.55" width="125.4" height="5.82"/><rect class="cls-20" x="210.68" y="381.88" width="90.14" height="5.83"/><rect class="cls-20" x="422.68" y="259.29" width="86.5" height="3.48"/><rect class="cls-20" x="422.68" y="265.46" width="81.14" height="3.47"/><rect class="cls-20" x="422.68" y="271.63" width="58.33" height="3.48"/><line class="cls-21" x1="498.51" y1="134.87" x2="498.51" y2="122.77"/><line class="cls-21" x1="492.46" y1="128.82" x2="504.56" y2="128.82"/><line class="cls-8" x1="132.06" y1="113.75" x2="132.06" y2="101.65"/><line class="cls-8" x1="126.01" y1="107.7" x2="138.11" y2="107.7"/><line class="cls-21" x1="95.45" y1="275.48" x2="95.45" y2="263.37"/><line class="cls-21" x1="89.4" y1="269.43" x2="101.5" y2="269.43"/><line class="cls-21" x1="29.95" y1="405.48" x2="29.95" y2="393.38"/><line class="cls-21" x1="23.9" y1="399.43" x2="36" y2="399.43"/><path class="cls-1" d="M101.73,536.36a188.4,188.4,0,0,1-28,2.3,171.84,171.84,0,0,1-26.37-2.3L48.45,534c4.63-10.27,22.14-6.27,26.12-16.87h0c3.31,10.6,21.48,6.6,26.11,16.87Z"/><rect class="cls-1" x="70.59" y="456.64" width="7.29" height="68.24"/><polygon class="cls-12" points="75.81 519.29 78.98 512.33 85.95 514.9 84.02 522.05 75.81 519.29"/><path class="cls-22" d="M75.82,519.18l-1.68,5.68,7.37,2.33s16.63,7,19.73,3.75c1.42-1.49-4-3-7.47-5.25s-8.93-5.55-8.93-5.55A35,35,0,0,1,75.82,519.18Z"/><polygon class="cls-12" points="112.62 529.57 113.71 522 121.12 522.49 121.28 529.9 112.62 529.57"/><path class="cls-22" d="M112.6,529.46v5.92l7.73.16s17.92,2,20-2c.94-1.82-4.66-1.7-8.65-2.93s-10.13-2.8-10.13-2.8A35,35,0,0,1,112.6,529.46Z"/><path class="cls-23" d="M179.61,399.08l-10.24-3.4-9.06,2.3c-5.1-1.33-6.8-1.26-17.25-3.94a143,143,0,0,1-19-6.79l-7.51-12.59c-4.86.44-15.06,5.74-15.06,5.74s14,19,17.93,20.32,30.78,4.59,41,3.42c3.21-.37,9.51-3.78,9.51-3.78l8.08,1.34,6.3,4.26,1.1-.91L183,402.3Z"/><path class="cls-24" d="M108.86,350.68s-13,2.18-12.8,13.89c.15,7.62,10.6,21.86,10.6,21.86s5.75-7.95,12.81-10.16c0,0-4.59-13.46-6-17.67A20,20,0,0,0,108.86,350.68Z"/><rect class="cls-1" x="61.31" y="454.65" width="25.84" height="13.91"/><path class="cls-1" d="M83.69,400.54Q85.6,375.29,86.43,350c-16-7.11-51.6-3.94-54.93,6.61-3.54,11.2,9.94,43.07,9.94,55s-4.64,20.54-5.3,25.84a13.12,13.12,0,0,0,2.65,9.27H79.63C80.67,431.29,82.53,415.91,83.69,400.54Z"/><path class="cls-25" d="M83.69,400.54q2-26.31,2.81-52.69c-17.55-4.11-45.45-.53-48.38,8.74-3.53,11.2,9.94,43.07,9.94,55s-4.63,20.54-5.3,25.84a13.17,13.17,0,0,0,2.65,9.27H79.63C80.67,431.29,82.53,415.91,83.69,400.54Z"/><path class="cls-1" d="M38.79,446.7h76.86a0,0,0,0,1,0,0v12.59a0,0,0,0,1,0,0H46a7.17,7.17,0,0,1-7.17-7.17V446.7a0,0,0,0,1,0,0Z"/><path class="cls-26" d="M101.07,417.77s36.77,21.84,39,30.86c2.61,10.77-15,74.5-15,74.5-4.16,2.8-11.87,1.85-14.71-.69,0,0,14.19-54.54,12.64-58.18-3.78-8.92-36-19.55-46.16-29.26s-11-19-11-19Z"/><path class="cls-11" d="M59,408s-12.52,26.11-1.26,36.71c5.16,4.86,36,.45,37.78,5.3L76.92,511.89s3.29,2,9.91,5.31c0,0,38.75-68.29,34.78-77.12s-30.7-13.92-32-18.78a108.87,108.87,0,0,1-2.21-12.81Z"/><path class="cls-12" d="M112.16,337.17c-.8,3-2.22,6.37-5.2,7.36-2.73.91-5.64-.56-8.11-2-2.92-1.74-5.87-3.64-7.74-6.47-2.82-4.3-5.11-9.55-4.79-14.69.11-1.81,2.77-4,3.87-5.49a8.14,8.14,0,0,1,3.1-2.22,32.36,32.36,0,0,1,8.7-2.72c5-.82,10.62.3,11.62,5.82C114.81,323.3,113.85,330.78,112.16,337.17Z"/><path class="cls-12" d="M76.72,345.44s0-1,3.59-1.88c1-.25,2.28-.25,3.09-1A24.91,24.91,0,0,0,89.86,332a3.1,3.1,0,0,0,.15-1.56q3.58,3,6.92,6.35c.76.76,5.36.33,4.8,1.35-.16.29-1.33,3-2.48,5.57,2.23,1.46,4.69,3.37,4.69,3.37L107,364.32l-9,5.08s-10.16-2.21-16.79-5.74S76.72,345.44,76.72,345.44Z"/><path class="cls-27" d="M80.31,343.56a20,20,0,0,0,9.27,7.73c6.63,2.87,12.59-5.74,12.59-5.74l6.69,5.13s.6,23.49-2.27,36.3-5.52,30.79-5.52,30.79-3,4.34-6.75,4.6c-4.63.31-11-3.31-21.08-1.51a55.81,55.81,0,0,1-19.5.25s8.6-42,10.59-50.41,7.14-25.59,7.14-25.59A72.45,72.45,0,0,1,80.31,343.56Z"/><path class="cls-14" d="M158.66,402.79H200a0,0,0,0,1,0,0v.63a2.71,2.71,0,0,1-2.71,2.71H158.66a0,0,0,0,1,0,0v-3.34A0,0,0,0,1,158.66,402.79Z"/><path class="cls-15" d="M185.08,364.78a2.73,2.73,0,0,0-2.57,1.8l-13.13,36.25.81.34-.22.63,30.05-1,12.79-34.33a2.74,2.74,0,0,0-2.56-3.69Z"/><path class="cls-28" d="M195.36,386.24c-.89,3.42-2.64,6.15-3.9,6.09s-1.57-2.87-.68-6.29,2.64-6.15,3.9-6.09S196.25,382.82,195.36,386.24Z"/><path class="cls-11" d="M104.73,317.88c4.3-.28,8.82-.31,12.58-2.26,1.83-1,3.46-2.47,3.81-4.39A3.67,3.67,0,0,0,118,307a2.77,2.77,0,0,1-1.26-.2,1.78,1.78,0,0,1-.6-1.38c-.47-3.41-3.34-6.84-7-6.76-3,.07-5.83,2.39-8.75,1.69a13.75,13.75,0,0,1-2.52-1.1,13.48,13.48,0,0,0-8.14-1.11c-2.9.51-6,2.8-5.27,5.46.24.88.88,1.66,1,2.56.61,3.21-4.51,4.81-5.52,7.93-.92,2.85,1.89,5.68,1.67,8.64-.12,1.64-1.08,3.58.18,4.75.66.62,1.81.78,2.25,1.56.61,1.05-.52,2.25-.62,3.45-.13,1.48,1.57,2.72,3.16,2.6a4.5,4.5,0,0,0,3.56-2.68,9.58,9.58,0,0,0,.62-4.38c-2.7-.76-4.37-5.22-1.82-6.36,1.36-.6,2.8.87,3.31,2.12C94.92,319.49,99.21,317.88,104.73,317.88Z"/><path class="cls-11" d="M93.76,324.74c.89,2.06,1.78,4.11,2.68,6.17a5.87,5.87,0,0,0,1.42,2.26,4.62,4.62,0,0,0,3.91.67c1.35-.27,3.92-1,5.28-.89,3.13.27,5.43,1.76,5.63,2.14.4.76-.17,2-.18,2.81a4.94,4.94,0,0,0,.6,2.62,8.07,8.07,0,0,0,1.17,1.38,6.09,6.09,0,0,1,2,4.27c-.12,2.21-2.16,3.76-4,5a10.58,10.58,0,0,1-3.8,1.85,10.39,10.39,0,0,1-2.84,0,28.08,28.08,0,0,1-5.86-.93,9.53,9.53,0,0,1-4.9-3.19,14,14,0,0,1-2-4.64,32.61,32.61,0,0,1-1.61-8,56.29,56.29,0,0,1,.66-7.65,41.76,41.76,0,0,0,.14-6.71c0-.27,0-.93.36-1s.29.6.35.88A15.82,15.82,0,0,0,93.76,324.74Z"/><path class="cls-12" d="M110.23,336.47a2.51,2.51,0,0,1-.52,2.79,1.57,1.57,0,0,1-1.23.5.91.91,0,0,1-.83-.91c0-.17.08-.35,0-.49a.53.53,0,0,0-.44-.17c-.61,0-1.36,0-1.64.54-.09.17-.12.36-.22.51-.23.38-.76.42-1.2.39a6.89,6.89,0,0,1-1.85-.41,2.23,2.23,0,0,1-.83-.49.9.9,0,0,1-.23-.89,1.29,1.29,0,0,1,.53-.58C103.67,335.9,108.69,333.14,110.23,336.47Z"/><path class="cls-1" d="M82.31,450.47s1.28-35.65-6.68-38-25.47-1.68-25.47-1.68l-1.59,6.39s22.92-1.68,26.1,2.69,0,30.94,0,30.94Z"/><path class="cls-12" d="M146.43,398l-10.23-3.4-9.07,2.3c-5.1-1.33-6.8-1.26-17.25-3.94a143,143,0,0,1-18.95-6.79L79.44,369c-4.86.44-11.08,10.33-11.08,10.33s14,19,17.93,20.32,34.3,4.84,44.52,3.67c3.22-.37,8.91-3.89,8.91-3.89l5.16,1.2,6.3,4.26,1.1-.91-2.51-2.75Z"/><path class="cls-29" d="M71.47,345.11S57.78,347.32,58,359c.15,7.63,10.6,21.87,10.6,21.87s5.74-7.95,12.81-10.16c0,0-5.52-10.82-6-15.24S71.47,345.11,71.47,345.11Z"/><path class="cls-15" d="M128,402.79h41.36a0,0,0,0,1,0,0v.63a2.71,2.71,0,0,1-2.71,2.71H128a0,0,0,0,1,0,0v-3.34A0,0,0,0,1,128,402.79Z"/><rect class="cls-28" x="131.88" y="403.85" width="13.79" height="1.03"/><rect class="cls-28" x="147.73" y="403.85" width="2.04" height="1.03"/><polygon class="cls-30" points="232.54 392.12 234.39 378.43 233.72 375.94 232.23 378.03 230.52 391.98 232.54 392.12"/><polygon class="cls-31" points="223.53 393.02 221.59 379.34 220.27 377.13 219.4 379.55 221.55 393.44 223.53 393.02"/><polygon class="cls-32" points="229.81 394.08 229.64 380.07 228.44 377.86 227.42 380.1 227.61 394.1 229.81 394.08"/><polygon class="cls-33" points="221.49 407.6 232.08 407.6 234 390.03 220.09 390.03 221.49 407.6"/><polygon class="cls-34" points="84.66 540.46 82.12 540.46 110.72 416.05 116.1 416.05 84.66 540.46"/><polygon class="cls-34" points="162.14 539.16 159.6 539.16 141.21 416.05 146.59 416.05 162.14 539.16"/><polygon class="cls-34" points="200.68 539.91 198.14 539.91 218.35 416.05 223.74 416.05 200.68 539.91"/><polygon class="cls-34" points="271.92 538.59 269.38 538.59 245.05 416.05 250.43 416.05 271.92 538.59"/><rect class="cls-35" x="95.5" y="410.49" width="134.14" height="5.56"/><rect class="cls-36" x="148.95" y="410.49" width="123.7" height="5.56"/><rect class="cls-36" x="83.19" y="405.84" width="143.46" height="7.44"/><rect class="cls-34" x="158.44" y="405.84" width="133.02" height="7.44"/><rect class="cls-25" x="215.16" y="220.25" width="48.14" height="21.76" rx="0.91"/><rect class="cls-37" x="216.47" y="225.96" width="45.51" height="15.02" rx="0.74"/><rect class="cls-37" x="217.14" y="221.85" width="1.89" height="1.7" rx="0.41"/><rect class="cls-37" x="220.57" y="221.85" width="1.89" height="1.7" rx="0.41"/><rect class="cls-37" x="224" y="221.85" width="1.89" height="1.7" rx="0.41"/><path class="cls-38" d="M260.13,229.26H236.06a.72.72,0,1,1,0-1.44h24.07a.72.72,0,0,1,0,1.44Z"/><path class="cls-38" d="M242,240.37H218a.72.72,0,1,1,0-1.44H242a.72.72,0,0,1,0,1.44Z"/><rect class="cls-38" x="243.72" y="238.93" width="2.98" height="1.44" rx="0.25"/><rect class="cls-38" x="247.48" y="238.93" width="2.98" height="1.44" rx="0.25"/><path class="cls-38" d="M260.36,232.39H220.5a.49.49,0,1,1,0-1h39.86a.49.49,0,1,1,0,1Z"/><path class="cls-38" d="M260.36,234.5H220.5a.49.49,0,1,1,0-1h39.86a.49.49,0,1,1,0,1Z"/><rect class="cls-25" x="227.3" y="253.35" width="48.14" height="21.76" rx="0.91"/><rect class="cls-37" x="228.61" y="259.06" width="45.51" height="15.02" rx="0.74"/><rect class="cls-37" x="229.28" y="254.95" width="1.89" height="1.7" rx="0.41"/><rect class="cls-37" x="232.71" y="254.95" width="1.89" height="1.7" rx="0.41"/><rect class="cls-37" x="236.14" y="254.95" width="1.89" height="1.7" rx="0.41"/><path class="cls-38" d="M272.27,262.36H248.2a.72.72,0,0,1,0-1.44h24.07a.72.72,0,0,1,0,1.44Z"/><path class="cls-38" d="M254.16,273.47H230.09a.72.72,0,0,1,0-1.44h24.07a.72.72,0,0,1,0,1.44Z"/><rect class="cls-38" x="255.86" y="272.03" width="2.98" height="1.44" rx="0.25"/><rect class="cls-38" x="259.62" y="272.03" width="2.98" height="1.44" rx="0.25"/><path class="cls-38" d="M272.5,265.49H232.64a.49.49,0,1,1,0-1H272.5a.49.49,0,1,1,0,1Z"/><path class="cls-38" d="M272.5,267.6H232.64a.49.49,0,1,1,0-1H272.5a.49.49,0,1,1,0,1Z"/><rect class="cls-25" x="282.82" y="221.96" width="43.44" height="17.9" rx="1.85"/><path class="cls-25" d="M288.07,237.16V247l11.38-11.38S288.3,237.16,288.07,237.16Z"/><rect class="cls-37" x="285.07" y="223.74" width="38.94" height="14.35" rx="1.57"/><path class="cls-38" d="M306.28,227.29H288.69a.77.77,0,1,1,0-1.54h17.59a.77.77,0,1,1,0,1.54Z"/><rect class="cls-38" x="287.92" y="229.37" width="33.49" height="0.87" rx="0.43"/><rect class="cls-38" x="287.92" y="231.05" width="33.49" height="0.87" rx="0.43"/><rect class="cls-38" x="312.75" y="235.78" width="1.89" height="1.7" rx="0.41"/><rect class="cls-38" x="316.18" y="235.78" width="1.89" height="1.7" rx="0.41"/><rect class="cls-38" x="319.61" y="235.78" width="1.89" height="1.7" rx="0.41"/><rect class="cls-20" x="422.68" y="217.05" width="86.5" height="3.48"/><rect class="cls-20" x="422.68" y="223.22" width="81.14" height="3.47"/><rect class="cls-20" x="422.68" y="229.39" width="58.33" height="3.48"/><rect class="cls-20" x="422.68" y="237.75" width="78" height="3.48"/><rect class="cls-20" x="422.68" y="243.92" width="73.17" height="3.47"/><rect class="cls-20" x="422.68" y="250.09" width="52.6" height="3.48"/><rect class="cls-20" x="422.68" y="285.3" width="78" height="3.48"/><rect class="cls-20" x="422.68" y="291.47" width="73.17" height="3.47"/><rect class="cls-20" x="422.68" y="297.64" width="52.6" height="3.48"/><rect class="cls-20" x="422.68" y="307.57" width="83.5" height="3.48"/><rect class="cls-20" x="422.68" y="313.74" width="78.33" height="3.47"/><rect class="cls-20" x="422.68" y="319.91" width="56.31" height="3.48"/><rect class="cls-20" x="422.68" y="332.04" width="78" height="3.48"/><rect class="cls-20" x="422.68" y="338.2" width="73.17" height="3.47"/><rect class="cls-20" x="422.68" y="344.37" width="52.6" height="3.48"/><rect class="cls-20" x="422.68" y="354.31" width="83.5" height="3.48"/><rect class="cls-20" x="422.68" y="360.48" width="78.33" height="3.47"/><rect class="cls-20" x="422.68" y="366.64" width="56.31" height="3.48"/><rect class="cls-20" x="422.68" y="376.58" width="78" height="3.48"/><rect class="cls-20" x="422.68" y="382.75" width="73.17" height="3.47"/><rect class="cls-20" x="422.68" y="388.92" width="52.6" height="3.48"/><rect class="cls-20" x="422.68" y="398.85" width="83.5" height="3.48"/><rect class="cls-20" x="422.68" y="405.02" width="78.33" height="3.47"/><rect class="cls-20" x="422.68" y="411.19" width="56.31" height="3.48"/><path class="cls-39" d="M266.94,341.45A3,3,0,0,1,267,341H240a1.57,1.57,0,0,0,0,3.14h27.36a3.56,3.56,0,0,1-.44-1.68Z"/><path class="cls-4" d="M387.49,342.6a1.57,1.57,0,0,0-1.57-1.57H267a3,3,0,0,0-.05.42v1a3.56,3.56,0,0,0,.44,1.68H385.92A1.58,1.58,0,0,0,387.49,342.6Z"/><path class="cls-40" d="M277.56,272.54a4.76,4.76,0,1,1-4.76-4.76A4.76,4.76,0,0,1,277.56,272.54Z"/><path class="cls-37" d="M272.33,274.3h0a.38.38,0,0,1-.26-.13l-1.29-1.46a.37.37,0,1,1,.55-.48l1,1.18,2.48-2.44a.37.37,0,0,1,.52,0,.36.36,0,0,1,0,.51l-2.76,2.7A.36.36,0,0,1,272.33,274.3Z"/><line class="cls-21" x1="362.25" y1="29.21" x2="362.25" y2="17.1"/><line class="cls-21" x1="356.2" y1="23.16" x2="368.3" y2="23.16"/><line class="cls-21" x1="222.67" y1="103.25" x2="222.67" y2="91.15"/><line class="cls-21" x1="216.62" y1="97.2" x2="228.72" y2="97.2"/></svg>